<mxfile host="Electron" modified="2023-12-29T16:58:31.457Z" agent="Mozilla/5.0 (Windows NT 10.0; Win64; x64) AppleWebKit/537.36 (KHTML, like Gecko) draw.io/22.1.15 Chrome/120.0.6099.109 Electron/28.1.0 Safari/537.36" etag="LJ2haY90BEtzf8e2F9UB" version="22.1.15" type="device">
  <diagram name="StrÃ¡nka-1" id="YqRgB6bF7ps_heDAT-wN">
    <mxGraphModel dx="1098" dy="838" grid="1" gridSize="10" guides="1" tooltips="1" connect="1" arrows="1" fold="1" page="1" pageScale="1" pageWidth="827" pageHeight="1169" math="0" shadow="0">
      <root>
        <mxCell id="0" />
        <mxCell id="1" parent="0" />
        <mxCell id="3DRULBe8b-DT2g1qf9wI-24" value="&lt;font style=&quot;font-size: 15px;&quot;&gt;&lt;b&gt;LS x2&lt;/b&gt;&lt;/font&gt;" style="text;html=1;strokeColor=none;fillColor=none;align=center;verticalAlign=middle;whiteSpace=wrap;rounded=0;" parent="1" vertex="1">
          <mxGeometry x="20" y="455" width="60" height="30" as="geometry" />
        </mxCell>
        <mxCell id="3DRULBe8b-DT2g1qf9wI-25" value="&lt;font style=&quot;font-size: 15px;&quot;&gt;&lt;b&gt;LS x1&lt;/b&gt;&lt;/font&gt;" style="text;html=1;strokeColor=none;fillColor=none;align=center;verticalAlign=middle;whiteSpace=wrap;rounded=0;" parent="1" vertex="1">
          <mxGeometry x="20" y="335" width="60" height="30" as="geometry" />
        </mxCell>
        <mxCell id="tmp1ecUuuH1XjkuUfVDl-21" style="edgeStyle=orthogonalEdgeStyle;rounded=0;orthogonalLoop=1;jettySize=auto;html=1;exitX=0;exitY=0.5;exitDx=0;exitDy=0;entryX=1;entryY=0.5;entryDx=0;entryDy=0;" edge="1" parent="1" source="tmp1ecUuuH1XjkuUfVDl-1" target="tmp1ecUuuH1XjkuUfVDl-6">
          <mxGeometry relative="1" as="geometry" />
        </mxCell>
        <mxCell id="tmp1ecUuuH1XjkuUfVDl-1" value="" style="swimlane;startSize=0;" vertex="1" parent="1">
          <mxGeometry x="114" y="320" width="600" height="60" as="geometry" />
        </mxCell>
        <mxCell id="tmp1ecUuuH1XjkuUfVDl-2" value="b" style="rounded=0;whiteSpace=wrap;html=1;" vertex="1" parent="tmp1ecUuuH1XjkuUfVDl-1">
          <mxGeometry width="120" height="60" as="geometry" />
        </mxCell>
        <mxCell id="tmp1ecUuuH1XjkuUfVDl-3" value="c" style="rounded=0;whiteSpace=wrap;html=1;" vertex="1" parent="tmp1ecUuuH1XjkuUfVDl-1">
          <mxGeometry x="120" width="120" height="60" as="geometry" />
        </mxCell>
        <mxCell id="tmp1ecUuuH1XjkuUfVDl-4" value="d" style="rounded=0;whiteSpace=wrap;html=1;" vertex="1" parent="tmp1ecUuuH1XjkuUfVDl-1">
          <mxGeometry x="240" width="120" height="60" as="geometry" />
        </mxCell>
        <mxCell id="tmp1ecUuuH1XjkuUfVDl-5" value="e" style="rounded=0;whiteSpace=wrap;html=1;" vertex="1" parent="tmp1ecUuuH1XjkuUfVDl-1">
          <mxGeometry x="360" width="120" height="60" as="geometry" />
        </mxCell>
        <mxCell id="tmp1ecUuuH1XjkuUfVDl-6" value="a" style="rounded=0;whiteSpace=wrap;html=1;" vertex="1" parent="1">
          <mxGeometry x="594" y="320" width="120" height="60" as="geometry" />
        </mxCell>
        <mxCell id="tmp1ecUuuH1XjkuUfVDl-7" value="" style="swimlane;startSize=0;" vertex="1" parent="1">
          <mxGeometry x="114" y="210" width="600" height="60" as="geometry" />
        </mxCell>
        <mxCell id="tmp1ecUuuH1XjkuUfVDl-8" value="a" style="rounded=0;whiteSpace=wrap;html=1;" vertex="1" parent="tmp1ecUuuH1XjkuUfVDl-7">
          <mxGeometry width="120" height="60" as="geometry" />
        </mxCell>
        <mxCell id="tmp1ecUuuH1XjkuUfVDl-9" value="b" style="rounded=0;whiteSpace=wrap;html=1;" vertex="1" parent="tmp1ecUuuH1XjkuUfVDl-7">
          <mxGeometry x="120" width="120" height="60" as="geometry" />
        </mxCell>
        <mxCell id="tmp1ecUuuH1XjkuUfVDl-10" value="c" style="rounded=0;whiteSpace=wrap;html=1;" vertex="1" parent="tmp1ecUuuH1XjkuUfVDl-7">
          <mxGeometry x="240" width="120" height="60" as="geometry" />
        </mxCell>
        <mxCell id="tmp1ecUuuH1XjkuUfVDl-11" value="d" style="rounded=0;whiteSpace=wrap;html=1;" vertex="1" parent="tmp1ecUuuH1XjkuUfVDl-7">
          <mxGeometry x="360" width="120" height="60" as="geometry" />
        </mxCell>
        <mxCell id="tmp1ecUuuH1XjkuUfVDl-12" value="e" style="rounded=0;whiteSpace=wrap;html=1;" vertex="1" parent="1">
          <mxGeometry x="594" y="210" width="120" height="60" as="geometry" />
        </mxCell>
        <mxCell id="tmp1ecUuuH1XjkuUfVDl-13" value="&lt;font style=&quot;font-size: 15px;&quot;&gt;&lt;b&gt;Original&lt;/b&gt;&lt;/font&gt;" style="text;html=1;strokeColor=none;fillColor=none;align=center;verticalAlign=middle;whiteSpace=wrap;rounded=0;" vertex="1" parent="1">
          <mxGeometry x="40" y="225" width="60" height="30" as="geometry" />
        </mxCell>
        <mxCell id="tmp1ecUuuH1XjkuUfVDl-14" value="" style="swimlane;startSize=0;" vertex="1" parent="1">
          <mxGeometry x="114" y="440" width="600" height="60" as="geometry" />
        </mxCell>
        <mxCell id="tmp1ecUuuH1XjkuUfVDl-15" value="c" style="rounded=0;whiteSpace=wrap;html=1;" vertex="1" parent="tmp1ecUuuH1XjkuUfVDl-14">
          <mxGeometry width="120" height="60" as="geometry" />
        </mxCell>
        <mxCell id="tmp1ecUuuH1XjkuUfVDl-16" value="d" style="rounded=0;whiteSpace=wrap;html=1;" vertex="1" parent="tmp1ecUuuH1XjkuUfVDl-14">
          <mxGeometry x="120" width="120" height="60" as="geometry" />
        </mxCell>
        <mxCell id="tmp1ecUuuH1XjkuUfVDl-17" value="e" style="rounded=0;whiteSpace=wrap;html=1;" vertex="1" parent="tmp1ecUuuH1XjkuUfVDl-14">
          <mxGeometry x="240" width="120" height="60" as="geometry" />
        </mxCell>
        <mxCell id="tmp1ecUuuH1XjkuUfVDl-18" value="a" style="rounded=0;whiteSpace=wrap;html=1;" vertex="1" parent="tmp1ecUuuH1XjkuUfVDl-14">
          <mxGeometry x="360" width="120" height="60" as="geometry" />
        </mxCell>
        <mxCell id="tmp1ecUuuH1XjkuUfVDl-19" value="b" style="rounded=0;whiteSpace=wrap;html=1;" vertex="1" parent="1">
          <mxGeometry x="594" y="440" width="120" height="60" as="geometry" />
        </mxCell>
        <mxCell id="tmp1ecUuuH1XjkuUfVDl-20" style="edgeStyle=orthogonalEdgeStyle;rounded=0;orthogonalLoop=1;jettySize=auto;html=1;exitX=0;exitY=0.5;exitDx=0;exitDy=0;entryX=1;entryY=0.5;entryDx=0;entryDy=0;" edge="1" parent="1" source="tmp1ecUuuH1XjkuUfVDl-15" target="tmp1ecUuuH1XjkuUfVDl-19">
          <mxGeometry relative="1" as="geometry">
            <Array as="points">
              <mxPoint x="94" y="470" />
              <mxPoint x="94" y="420" />
              <mxPoint x="734" y="420" />
              <mxPoint x="734" y="470" />
            </Array>
          </mxGeometry>
        </mxCell>
      </root>
    </mxGraphModel>
  </diagram>
</mxfile>
